<mxfile host="app.diagrams.net" modified="2022-02-15T07:23:30.071Z" agent="5.0 (Windows NT 10.0; Win64; x64) AppleWebKit/537.36 (KHTML, like Gecko) Chrome/98.0.4758.82 Safari/537.36" etag="5oQcJDMdSLkSnyW6SriV" version="16.5.6" type="github">
  <diagram id="dE0KJhFs69BReP3-NwDw" name="Page-1">
    <mxGraphModel dx="1422" dy="771" grid="1" gridSize="10" guides="1" tooltips="1" connect="1" arrows="1" fold="1" page="1" pageScale="1" pageWidth="827" pageHeight="1169" math="0" shadow="0">
      <root>
        <mxCell id="0" />
        <mxCell id="1" parent="0" />
        <mxCell id="a2aKRj5XqUTAodOvIzJf-3" style="edgeStyle=orthogonalEdgeStyle;orthogonalLoop=1;jettySize=auto;html=1;exitX=1;exitY=0.5;exitDx=0;exitDy=0;exitPerimeter=0;rounded=0;startArrow=classic;startFill=1;entryX=0;entryY=0.5;entryDx=0;entryDy=0;entryPerimeter=0;" parent="1" source="a2aKRj5XqUTAodOvIzJf-5" target="a2aKRj5XqUTAodOvIzJf-6" edge="1">
          <mxGeometry relative="1" as="geometry">
            <mxPoint x="560" y="570" as="targetPoint" />
            <mxPoint x="240" y="570" as="sourcePoint" />
          </mxGeometry>
        </mxCell>
        <mxCell id="a2aKRj5XqUTAodOvIzJf-4" value="FOSS" style="edgeLabel;html=1;align=center;verticalAlign=middle;resizable=0;points=[];" parent="a2aKRj5XqUTAodOvIzJf-3" vertex="1" connectable="0">
          <mxGeometry x="-0.1187" y="-4" relative="1" as="geometry">
            <mxPoint x="19" y="-4" as="offset" />
          </mxGeometry>
        </mxCell>
        <mxCell id="a2aKRj5XqUTAodOvIzJf-7" value="" style="swimlane;startSize=0;" parent="1" vertex="1">
          <mxGeometry x="120" y="320" width="240" height="300" as="geometry" />
        </mxCell>
        <mxCell id="a2aKRj5XqUTAodOvIzJf-5" value="codis" style="strokeWidth=2;html=1;shape=mxgraph.flowchart.database;whiteSpace=wrap;" parent="a2aKRj5XqUTAodOvIzJf-7" vertex="1">
          <mxGeometry x="90" y="220" width="60" height="60" as="geometry" />
        </mxCell>
        <mxCell id="a2aKRj5XqUTAodOvIzJf-13" style="edgeStyle=orthogonalEdgeStyle;rounded=0;orthogonalLoop=1;jettySize=auto;html=1;exitX=0.5;exitY=1;exitDx=0;exitDy=0;entryX=0.5;entryY=0;entryDx=0;entryDy=0;entryPerimeter=0;startArrow=classic;startFill=1;" parent="a2aKRj5XqUTAodOvIzJf-7" source="a2aKRj5XqUTAodOvIzJf-12" target="a2aKRj5XqUTAodOvIzJf-5" edge="1">
          <mxGeometry relative="1" as="geometry" />
        </mxCell>
        <mxCell id="a2aKRj5XqUTAodOvIzJf-12" value="Data&lt;br&gt;Store" style="shape=process;whiteSpace=wrap;html=1;backgroundOutline=1;" parent="a2aKRj5XqUTAodOvIzJf-7" vertex="1">
          <mxGeometry x="60" y="140" width="120" height="60" as="geometry" />
        </mxCell>
        <mxCell id="a2aKRj5XqUTAodOvIzJf-18" style="edgeStyle=orthogonalEdgeStyle;rounded=0;orthogonalLoop=1;jettySize=auto;html=1;exitX=0.5;exitY=1;exitDx=0;exitDy=0;entryX=0.5;entryY=0;entryDx=0;entryDy=0;startArrow=none;startFill=0;" parent="a2aKRj5XqUTAodOvIzJf-7" source="a2aKRj5XqUTAodOvIzJf-14" target="a2aKRj5XqUTAodOvIzJf-12" edge="1">
          <mxGeometry relative="1" as="geometry" />
        </mxCell>
        <mxCell id="a2aKRj5XqUTAodOvIzJf-14" value="GM&lt;br&gt;&lt;font color=&quot;#ff0000&quot;&gt;主点&lt;/font&gt;" style="shape=process;whiteSpace=wrap;html=1;backgroundOutline=1;" parent="a2aKRj5XqUTAodOvIzJf-7" vertex="1">
          <mxGeometry x="60" y="48" width="120" height="60" as="geometry" />
        </mxCell>
        <mxCell id="a2aKRj5XqUTAodOvIzJf-19" value="&lt;font color=&quot;#ff0000&quot;&gt;同机房&lt;/font&gt;推送" style="text;html=1;align=center;verticalAlign=middle;resizable=0;points=[];autosize=1;strokeColor=none;fillColor=none;" parent="a2aKRj5XqUTAodOvIzJf-7" vertex="1">
          <mxGeometry x="110" y="110" width="80" height="20" as="geometry" />
        </mxCell>
        <mxCell id="a2aKRj5XqUTAodOvIzJf-8" value="亚洲" style="text;html=1;align=center;verticalAlign=middle;resizable=0;points=[];autosize=1;strokeColor=none;fillColor=none;" parent="1" vertex="1">
          <mxGeometry x="220" y="330" width="40" height="20" as="geometry" />
        </mxCell>
        <mxCell id="a2aKRj5XqUTAodOvIzJf-9" value="" style="swimlane;startSize=0;" parent="1" vertex="1">
          <mxGeometry x="450" y="320" width="240" height="300" as="geometry">
            <mxRectangle x="450" y="320" width="50" height="40" as="alternateBounds" />
          </mxGeometry>
        </mxCell>
        <mxCell id="a2aKRj5XqUTAodOvIzJf-17" style="edgeStyle=orthogonalEdgeStyle;rounded=0;orthogonalLoop=1;jettySize=auto;html=1;exitX=0.5;exitY=1;exitDx=0;exitDy=0;entryX=0.5;entryY=0;entryDx=0;entryDy=0;startArrow=none;startFill=0;" parent="a2aKRj5XqUTAodOvIzJf-9" source="a2aKRj5XqUTAodOvIzJf-11" target="a2aKRj5XqUTAodOvIzJf-15" edge="1">
          <mxGeometry relative="1" as="geometry" />
        </mxCell>
        <mxCell id="a2aKRj5XqUTAodOvIzJf-11" value="业务" style="shape=process;whiteSpace=wrap;html=1;backgroundOutline=1;" parent="a2aKRj5XqUTAodOvIzJf-9" vertex="1">
          <mxGeometry x="60" y="50" width="120" height="60" as="geometry" />
        </mxCell>
        <mxCell id="a2aKRj5XqUTAodOvIzJf-16" style="edgeStyle=orthogonalEdgeStyle;rounded=0;orthogonalLoop=1;jettySize=auto;html=1;exitX=0.5;exitY=1;exitDx=0;exitDy=0;entryX=0.5;entryY=0;entryDx=0;entryDy=0;entryPerimeter=0;startArrow=classic;startFill=1;" parent="a2aKRj5XqUTAodOvIzJf-9" source="a2aKRj5XqUTAodOvIzJf-15" target="a2aKRj5XqUTAodOvIzJf-6" edge="1">
          <mxGeometry relative="1" as="geometry" />
        </mxCell>
        <mxCell id="a2aKRj5XqUTAodOvIzJf-15" value="Data&lt;br&gt;Query" style="shape=process;whiteSpace=wrap;html=1;backgroundOutline=1;" parent="a2aKRj5XqUTAodOvIzJf-9" vertex="1">
          <mxGeometry x="60" y="140" width="120" height="60" as="geometry" />
        </mxCell>
        <mxCell id="a2aKRj5XqUTAodOvIzJf-6" value="codis" style="strokeWidth=2;html=1;shape=mxgraph.flowchart.database;whiteSpace=wrap;" parent="a2aKRj5XqUTAodOvIzJf-9" vertex="1">
          <mxGeometry x="90" y="220" width="60" height="60" as="geometry" />
        </mxCell>
        <mxCell id="a2aKRj5XqUTAodOvIzJf-10" value="欧/美洲" style="text;html=1;align=center;verticalAlign=middle;resizable=0;points=[];autosize=1;strokeColor=none;fillColor=none;" parent="1" vertex="1">
          <mxGeometry x="545" y="330" width="50" height="20" as="geometry" />
        </mxCell>
      </root>
    </mxGraphModel>
  </diagram>
</mxfile>
